<svg xmlns="http://www.w3.org/2000/svg" width="256" height="256" viewBox="0 0 256 256" role="img" aria-labelledby="title desc">
<title id="title">JSON file</title><desc id="desc">Structured document marked by paired braces and nested entries. </desc>
<g stroke-linecap="round" stroke-linejoin="round"><path d="M59 36 H155 L194 75 V219 H59 Z" fill="#B8AC99" stroke="#101527" stroke-width="2.5"/><path d="M51 30 H151 L188 67 V213 H51 Z" fill="#E9DDC7" stroke="#101527" stroke-width="2.5"/><path d="M151 30 V67 H188" fill="#B8AC99" stroke="#101527" stroke-width="2.5"/><line x1="57" y1="33" x2="147" y2="33" stroke="#FFF4DE" stroke-width="1.5"/><path d="M100 91 Q88 91 88 103 V117 Q88 126 79 126 Q88 126 88 136 V152 Q88 163 100 163 M144 91 Q156 91 156 103 V117 Q156 126 165 126 Q156 126 156 136 V152 Q156 163 144 163" fill="none" stroke="#101527" stroke-width="4"/><circle cx="122" cy="111" r="3" fill="#CC3333" stroke="#101527" stroke-width="2.5"/><circle cx="122" cy="128" r="3" fill="#CC3333" stroke="#101527" stroke-width="2.5"/><circle cx="122" cy="145" r="3" fill="#CC3333" stroke="#101527" stroke-width="2.5"/></g>
</svg>
