<svg xmlns="http://www.w3.org/2000/svg" width="256" height="256" viewBox="0 0 256 256" role="img" aria-labelledby="title desc">
<title id="title">Diffusion</title><desc id="desc">Noisy input grid resolving into a coherent image tile. </desc>
<g stroke-linecap="round" stroke-linejoin="round"><polygon points="35,81 44,74.7 101,74.7 92,81" fill="#78909B" stroke="#101527" stroke-width="2.5"/><polygon points="92,81 101,74.7 101,179.7 92,186" fill="#304654" stroke="#101527" stroke-width="2.5"/><rect x="35" y="81" width="57" height="105" rx="3" fill="#526B7A" stroke="#101527" stroke-width="2.5"/><line x1="39" y1="83" x2="88" y2="83" stroke="#78909B" stroke-width="1.5"/><rect x="43" y="96" width="7" height="9" rx="1" fill="#304654" stroke="#101527" stroke-width="2.5"/><rect x="56" y="96" width="7" height="9" rx="1" fill="#E9DDC7" stroke="#101527" stroke-width="2.5"/><rect x="69" y="96" width="7" height="9" rx="1" fill="#304654" stroke="#101527" stroke-width="2.5"/><rect x="43" y="113" width="7" height="9" rx="1" fill="#E9DDC7" stroke="#101527" stroke-width="2.5"/><rect x="56" y="113" width="7" height="9" rx="1" fill="#304654" stroke="#101527" stroke-width="2.5"/><rect x="69" y="113" width="7" height="9" rx="1" fill="#E9DDC7" stroke="#101527" stroke-width="2.5"/><rect x="43" y="130" width="7" height="9" rx="1" fill="#304654" stroke="#101527" stroke-width="2.5"/><rect x="56" y="130" width="7" height="9" rx="1" fill="#E9DDC7" stroke="#101527" stroke-width="2.5"/><rect x="69" y="130" width="7" height="9" rx="1" fill="#304654" stroke="#101527" stroke-width="2.5"/><rect x="43" y="147" width="7" height="9" rx="1" fill="#E9DDC7" stroke="#101527" stroke-width="2.5"/><rect x="56" y="147" width="7" height="9" rx="1" fill="#304654" stroke="#101527" stroke-width="2.5"/><rect x="69" y="147" width="7" height="9" rx="1" fill="#E9DDC7" stroke="#101527" stroke-width="2.5"/><line x1="102" y1="130" x2="145" y2="130" stroke="#CC3333" stroke-width="3"/><path d="M137.04 136.05 L145 130 L137.04 123.95" fill="none" stroke="#CC3333" stroke-width="3"/><polygon points="155,81 164,74.7 221,74.7 212,81" fill="#FFF4DE" stroke="#101527" stroke-width="2.5"/><polygon points="212,81 221,74.7 221,179.7 212,186" fill="#B8AC99" stroke="#101527" stroke-width="2.5"/><rect x="155" y="81" width="57" height="105" rx="3" fill="#E9DDC7" stroke="#101527" stroke-width="2.5"/><line x1="159" y1="83" x2="208" y2="83" stroke="#FFF4DE" stroke-width="1.5"/><circle cx="189" cy="110" r="7" fill="#CC3333" stroke="#101527" stroke-width="2.5"/><polygon points="161,165 177,129 188,149 198,133 208,165" fill="#526B7A" stroke="#101527" stroke-width="2.5"/></g>
</svg>
