<svg xmlns="http://www.w3.org/2000/svg" width="256" height="256" viewBox="0 0 256 256" role="img" aria-labelledby="title desc">
<title id="title">CI/CD</title><desc id="desc">Continuous build and release loop with verified source and deployment artifact. </desc>
<g stroke-linecap="round" stroke-linejoin="round"><path d="M37 130 C37 58 112 56 127 130 C145 205 217 203 217 130 C217 59 146 57 127 130 C108 205 37 202 37 130 Z" fill="none" stroke="#78909B" stroke-width="15"/><circle cx="48" cy="100" r="23" fill="#E9DDC7" stroke="#101527" stroke-width="2.5"/><path d="M36 100.0 l8.399999999999999 8.399999999999999 l15.600000000000001 -20.4" fill="none" stroke="#CC3333" stroke-width="4"/><polygon points="166,147 173,142.1 213,142.1 206,147" fill="#E4604E" stroke="#101527" stroke-width="2.5"/><polygon points="206,147 213,142.1 213,181.1 206,186" fill="#8F292C" stroke="#101527" stroke-width="2.5"/><rect x="166" y="147" width="40" height="39" rx="3" fill="#CC3333" stroke="#101527" stroke-width="2.5"/><line x1="170" y1="149" x2="202" y2="149" stroke="#E4604E" stroke-width="1.5"/><line x1="182" y1="62" x2="205" y2="80" stroke="#E9DDC7" stroke-width="4"/><path d="M195.00 79.86 L205 80 L202.46 70.33" fill="none" stroke="#E9DDC7" stroke-width="4"/></g>
</svg>
