<svg xmlns="http://www.w3.org/2000/svg" width="256" height="256" viewBox="0 0 256 256" role="img" aria-labelledby="title desc">
<title id="title">Chevron right</title><desc id="desc">A folded metal chevron pointing right. </desc>
<g stroke-linecap="round" stroke-linejoin="round"><g transform="translate(12 -8.399999999999999) scale(1)"><path d="M87.000 51.000 L111.000 51.000 L179.000 124.000 L111.000 197.000 L87.000 197.000 L151.000 124.000 Z" fill="#B8AC99" stroke="#101527" stroke-width="2.5" fill-rule="evenodd"/></g><polygon points="87.0,51.0 111.0,51.0 123.0,42.6 99.0,42.6" fill="#FFF4DE" stroke="none" stroke-width="0"/><polygon points="111.0,51.0 179.0,124.0 191.0,115.6 123.0,42.6" fill="#B8AC99" stroke="none" stroke-width="0"/><polygon points="179.0,124.0 111.0,197.0 123.0,188.6 191.0,115.6" fill="#B8AC99" stroke="none" stroke-width="0"/><polygon points="111.0,197.0 87.0,197.0 99.0,188.6 123.0,188.6" fill="#FFF4DE" stroke="none" stroke-width="0"/><polygon points="87.0,197.0 151.0,124.0 163.0,115.6 99.0,188.6" fill="#B8AC99" stroke="none" stroke-width="0"/><polygon points="151.0,124.0 87.0,51.0 99.0,42.6 163.0,115.6" fill="#B8AC99" stroke="none" stroke-width="0"/><path d="M87.000 51.000 L111.000 51.000 L179.000 124.000 L111.000 197.000 L87.000 197.000 L151.000 124.000 Z" fill="#E9DDC7" stroke="#101527" stroke-width="2.5" fill-rule="evenodd"/></g>
</svg>
