<svg xmlns="http://www.w3.org/2000/svg" width="256" height="256" viewBox="0 0 256 256" role="img" aria-labelledby="title desc">
<title id="title">Close</title><desc id="desc">Intersecting red metal bars with a visible cut edge. </desc>
<g stroke-linecap="round" stroke-linejoin="round"><g transform="translate(11 -7.699999999999999) scale(1)"><path d="M64.000 44.000 L124.000 104.000 L184.000 44.000 L205.000 65.000 L145.000 125.000 L205.000 185.000 L184.000 206.000 L124.000 146.000 L64.000 206.000 L43.000 185.000 L103.000 125.000 L43.000 65.000 Z" fill="#8F292C" stroke="#101527" stroke-width="2.5" fill-rule="evenodd"/></g><polygon points="64,44 124,104 135,96.3 75,36.3" fill="#E4604E" stroke="none" stroke-width="0"/><polygon points="124,104 184,44 195,36.3 135,96.3" fill="#8F292C" stroke="none" stroke-width="0"/><polygon points="184,44 205,65 216,57.3 195,36.3" fill="#E4604E" stroke="none" stroke-width="0"/><polygon points="205,65 145,125 156,117.3 216,57.3" fill="#8F292C" stroke="none" stroke-width="0"/><polygon points="145,125 205,185 216,177.3 156,117.3" fill="#E4604E" stroke="none" stroke-width="0"/><polygon points="205,185 184,206 195,198.3 216,177.3" fill="#8F292C" stroke="none" stroke-width="0"/><polygon points="184,206 124,146 135,138.3 195,198.3" fill="#E4604E" stroke="none" stroke-width="0"/><polygon points="124,146 64,206 75,198.3 135,138.3" fill="#8F292C" stroke="none" stroke-width="0"/><polygon points="64,206 43,185 54,177.3 75,198.3" fill="#E4604E" stroke="none" stroke-width="0"/><polygon points="43,185 103,125 114,117.3 54,177.3" fill="#8F292C" stroke="none" stroke-width="0"/><polygon points="103,125 43,65 54,57.3 114,117.3" fill="#E4604E" stroke="none" stroke-width="0"/><polygon points="43,65 64,44 75,36.3 54,57.3" fill="#8F292C" stroke="none" stroke-width="0"/><path d="M64.000 44.000 L124.000 104.000 L184.000 44.000 L205.000 65.000 L145.000 125.000 L205.000 185.000 L184.000 206.000 L124.000 146.000 L64.000 206.000 L43.000 185.000 L103.000 125.000 L43.000 65.000 Z" fill="#CC3333" stroke="#101527" stroke-width="2.5" fill-rule="evenodd"/></g>
</svg>
