<svg xmlns="http://www.w3.org/2000/svg" width="24" height="24" viewBox="0 0 24 24" role="img" aria-labelledby="title desc">
<title id="title">LinkedIn — flat mark</title><desc id="desc">LinkedIn mark as a solid, cel-shaded emblem with an unchanged source silhouette. Font Awesome Free 7.3.1; Fonticons, Inc. (https://fontawesome.com), CC BY 4.0 (https://creativecommons.org/licenses/by/4.0/). Original front path preserved. Illustrated version adds cel-shaded extrusion; flat version is scaled and centered. Colors use the repository palette.</desc>
<g stroke-linecap="round" stroke-linejoin="round"><g transform="translate(3.25 2.0) scale(0.0390625)"><path d="M100.3 448l-92.9 0 0-299.1 92.9 0 0 299.1zM53.8 108.1C24.1 108.1 0 83.5 0 53.8 0 39.5 5.7 25.9 15.8 15.8s23.8-15.8 38-15.8 27.9 5.7 38 15.8 15.8 23.8 15.8 38c0 29.7-24.1 54.3-53.8 54.3zM447.9 448l-92.7 0 0-145.6c0-34.7-.7-79.2-48.3-79.2-48.3 0-55.7 37.7-55.7 76.7l0 148.1-92.8 0 0-299.1 89.1 0 0 40.8 1.3 0c12.4-23.5 42.7-48.3 87.9-48.3 94 0 111.3 61.9 111.3 142.3l0 164.3-.1 0z" fill="#101527" stroke="none" stroke-width="0" data-brand-face="true"/></g></g>
</svg>
